# xmcd
#
# Track frame offsets: 
#        150
#        17830
#        35727
#        52939
#        69575
#        85482
#        101275
#        115720
#        130545
#        148100
#        164970
#        182575
#        197220
#        214077
#        229952
#        247077
#        262222
#        279740
#        294350
#        312095
#
# Disc length: 4382 seconds
#
# Revision: 0
# Processed by: cddbd v1.5.2PL0 Copyright (c) Steve Scherf et al.
# Submitted via: ExactAudioCopy v0.95a5
#
DISCID=34111c14
DTITLE=Various Artist - Taneèní liga 24
DYEAR=1998
DGENRE=Dance
TTITLE0=666 - Paradoxx (Album Version)
TTITLE1=Gigi D´Agostino -  Elisir (Radio Edit)
TTITLE2=DJ Visage - Geil! (Video Version)
TTITLE3=DJ Bobo - Celebrate (Radio Version)
TTITLE4=Mal a Susy - Stop! a Go! (Radio Version)
TTITLE5=Piet Blank a Jaspa Jones - Flying To The Moon (Radio Mix)
TTITLE6=Paffendorf - Call Me Now (Radio Mix)
TTITLE7=ATB - 9 PM ( Till I Come ) (Radio Edit)
TTITLE8=Karen Ramirez - Looking For Love (Dave´s Found You Radio Edit)
TTITLE9=Down Low - Once Upon A Time (Radio Mix)
TTITLE10=Fancy - Slice Me Nice ´98 (Radio/Video Version)
TTITLE11=Central Seven - Big Fun (Radio Edit)
TTITLE12=The CaN Project feat. Ofra Haza - The Queen Of Tel Aviv (Radi
TTITLE12=o Mix)
TTITLE13=U 96 - Beweg Dich, Baby (7" Englisch)
TTITLE14=Bacon Popper - Free (Radio Edit)
TTITLE15=Zycro Meets DJ Silencer - Check It Out (Tdmk Radio Edit)
TTITLE16=Billy Hendrix - Body Shine (Short Mix)
TTITLE17=High Energy - Big Big Man
TTITLE18=Banditos Bonitos feat. Nina - Gimme Sunshine (Radio Rio Mix)
TTITLE19=Rapublic - Ti Amo ´98
EXTD=
EXTT0=
EXTT1=
EXTT2=
EXTT3=
EXTT4=
EXTT5=
EXTT6=
EXTT7=
EXTT8=
EXTT9=
EXTT10=
EXTT11=
EXTT12=
EXTT13=
EXTT14=
EXTT15=
EXTT16=
EXTT17=
EXTT18=
EXTT19=
PLAYORDER=
